<?xml version="1.0" encoding="UTF-8" standalone="no"?>
<!DOCTYPE svg PUBLIC "-//W3C//DTD SVG 1.1//EN"
 "http://www.w3.org/Graphics/SVG/1.1/DTD/svg11.dtd">
<!-- Generated by graphviz version 16.1.0 (0)
 -->
<!-- Title: char Pages: 1 -->
<svg width="1192pt" height="341pt"
 viewBox="0.00 0.00 1192.00 341.00" xmlns="http://www.w3.org/2000/svg" xmlns:xlink="http://www.w3.org/1999/xlink">
<g id="graph0" class="graph" transform="scale(1 1) rotate(0) translate(4 337.06)">
<title>char</title>
<polygon fill="white" stroke="none" points="-4,4 -4,-337.06 1187.55,-337.06 1187.55,4 -4,4"/>
<!-- start -->
<g id="node1" class="node">
<title>start</title>
<ellipse fill="black" stroke="black" cx="1.8" cy="-155.53" rx="1.8" ry="1.8"/>
</g>
<!-- q0 -->
<g id="node7" class="node">
<title>q0</title>
<ellipse fill="none" stroke="black" cx="64.45" cy="-155.53" rx="23.85" ry="23.85"/>
<text xml:space="preserve" text-anchor="middle" x="64.45" y="-150.85" font-family="Helvetica,sans-Serif" font-size="14.00">q0</text>
</g>
<!-- start&#45;&gt;q0 -->
<g id="edge1" class="edge">
<title>start&#45;&gt;q0</title>
<path fill="none" stroke="black" d="M3.85,-155.53C7.13,-155.53 17.62,-155.53 28.91,-155.53"/>
<polygon fill="black" stroke="black" points="28.71,-159.03 38.71,-155.53 28.71,-152.03 28.71,-159.03"/>
</g>
<!-- q4 -->
<g id="node2" class="node">
<title>q4</title>
<ellipse fill="none" stroke="black" cx="1066.26" cy="-159.53" rx="39.42" ry="39.42"/>
<ellipse fill="none" stroke="black" cx="1066.26" cy="-159.53" rx="43.42" ry="43.42"/>
<text xml:space="preserve" text-anchor="middle" x="1066.26" y="-163.48" font-family="Helvetica,sans-Serif" font-size="14.00">q4</text>
<text xml:space="preserve" text-anchor="middle" x="1066.26" y="-146.23" font-family="Helvetica,sans-Serif" font-size="14.00">CHAR</text>
</g>
<!-- E1 -->
<g id="node3" class="node">
<title>E1</title>
<polygon fill="#f8d0d0" stroke="black" points="511.83,-287.05 511.83,-314 462.62,-333.06 393.04,-333.06 343.83,-314 343.83,-287.05 393.04,-268 462.62,-268 511.83,-287.05"/>
<text xml:space="preserve" text-anchor="middle" x="427.83" y="-304.48" font-family="Helvetica,sans-Serif" font-size="14.00">ERRO</text>
<text xml:space="preserve" text-anchor="middle" x="427.83" y="-287.23" font-family="Helvetica,sans-Serif" font-size="14.00">char vazio (&#39;&#39;)</text>
</g>
<!-- E2 -->
<g id="node4" class="node">
<title>E2</title>
<polygon fill="#f8d0d0" stroke="black" points="876.96,-19.05 876.96,-46 803.21,-65.06 698.91,-65.06 625.16,-46 625.16,-19.05 698.91,0 803.21,0 876.96,-19.05"/>
<text xml:space="preserve" text-anchor="middle" x="751.06" y="-36.48" font-family="Helvetica,sans-Serif" font-size="14.00">ERRO</text>
<text xml:space="preserve" text-anchor="middle" x="751.06" y="-19.23" font-family="Helvetica,sans-Serif" font-size="14.00">escape desconhecido</text>
</g>
<!-- E3 -->
<g id="node5" class="node">
<title>E3</title>
<polygon fill="#f8d0d0" stroke="black" points="1183.55,-33.59 1183.55,-71.47 1114.84,-98.26 1017.67,-98.26 948.96,-71.47 948.96,-33.59 1017.67,-6.8 1114.84,-6.8 1183.55,-33.59"/>
<text xml:space="preserve" text-anchor="middle" x="1066.26" y="-65.1" font-family="Helvetica,sans-Serif" font-size="14.00">ERRO</text>
<text xml:space="preserve" text-anchor="middle" x="1066.26" y="-47.85" font-family="Helvetica,sans-Serif" font-size="14.00">mais de 1 caractere</text>
<text xml:space="preserve" text-anchor="middle" x="1066.26" y="-30.6" font-family="Helvetica,sans-Serif" font-size="14.00">ou não fechado</text>
</g>
<!-- E4 -->
<g id="node6" class="node">
<title>E4</title>
<polygon fill="#f8d0d0" stroke="black" points="553.16,-185.59 553.16,-223.47 479.74,-250.26 375.92,-250.26 302.5,-223.47 302.5,-185.59 375.92,-158.8 479.74,-158.8 553.16,-185.59"/>
<text xml:space="preserve" text-anchor="middle" x="427.83" y="-217.1" font-family="Helvetica,sans-Serif" font-size="14.00">ERRO</text>
<text xml:space="preserve" text-anchor="middle" x="427.83" y="-199.85" font-family="Helvetica,sans-Serif" font-size="14.00">char não fechado</text>
<text xml:space="preserve" text-anchor="middle" x="427.83" y="-182.6" font-family="Helvetica,sans-Serif" font-size="14.00">(fim de linha ou EOF)</text>
</g>
<!-- q1 -->
<g id="node8" class="node">
<title>q1</title>
<ellipse fill="none" stroke="black" cx="151.9" cy="-155.53" rx="23.85" ry="23.85"/>
<text xml:space="preserve" text-anchor="middle" x="151.9" y="-150.85" font-family="Helvetica,sans-Serif" font-size="14.00">q1</text>
</g>
<!-- q0&#45;&gt;q1 -->
<g id="edge2" class="edge">
<title>q0&#45;&gt;q1</title>
<path fill="none" stroke="black" d="M88.8,-155.53C97.28,-155.53 107.05,-155.53 116.29,-155.53"/>
<polygon fill="black" stroke="black" points="116.07,-159.03 126.07,-155.53 116.07,-152.03 116.07,-159.03"/>
<text xml:space="preserve" text-anchor="middle" x="108.18" y="-159.48" font-family="Helvetica,sans-Serif" font-size="14.00">&#39;</text>
</g>
<!-- q1&#45;&gt;E1 -->
<g id="edge5" class="edge">
<title>q1&#45;&gt;E1</title>
<path fill="none" stroke="black" d="M167.64,-173.93C174.94,-182.35 184.22,-192.08 193.75,-199.53 239.46,-235.25 299.74,-260.93 347.55,-277.46"/>
<polygon fill="black" stroke="black" points="346.14,-280.67 356.73,-280.56 348.38,-274.04 346.14,-280.67"/>
<text xml:space="preserve" text-anchor="middle" x="239.13" y="-255.95" font-family="Helvetica,sans-Serif" font-size="14.00">&#39;</text>
</g>
<!-- q1&#45;&gt;E4 -->
<g id="edge6" class="edge">
<title>q1&#45;&gt;E4</title>
<path fill="none" stroke="black" d="M175.78,-159.62C202.93,-164.48 250.36,-172.96 296.73,-181.26"/>
<polygon fill="black" stroke="black" points="295.91,-184.66 306.37,-182.98 297.14,-177.77 295.91,-184.66"/>
<text xml:space="preserve" text-anchor="middle" x="239.13" y="-182.51" font-family="Helvetica,sans-Serif" font-size="14.00">LF | CR | EOF</text>
</g>
<!-- q3 -->
<g id="node9" class="node">
<title>q3</title>
<ellipse fill="none" stroke="black" cx="751.06" cy="-106.53" rx="23.85" ry="23.85"/>
<text xml:space="preserve" text-anchor="middle" x="751.06" y="-101.85" font-family="Helvetica,sans-Serif" font-size="14.00">q3</text>
</g>
<!-- q1&#45;&gt;q3 -->
<g id="edge3" class="edge">
<title>q1&#45;&gt;q3</title>
<path fill="none" stroke="black" d="M174.85,-147.76C203.7,-137.97 256.15,-121.64 302.5,-115.03 455.5,-93.2 640.87,-100.16 715.99,-104.35"/>
<polygon fill="black" stroke="black" points="715.38,-107.82 725.57,-104.9 715.79,-100.83 715.38,-107.82"/>
<text xml:space="preserve" text-anchor="middle" x="427.83" y="-136.23" font-family="Helvetica,sans-Serif" font-size="14.00">qualquer exceto</text>
<text xml:space="preserve" text-anchor="middle" x="427.83" y="-118.98" font-family="Helvetica,sans-Serif" font-size="14.00">&#39; \ LF CR</text>
</g>
<!-- q2 -->
<g id="node10" class="node">
<title>q2</title>
<ellipse fill="none" stroke="black" cx="427.83" cy="-46.53" rx="23.85" ry="23.85"/>
<text xml:space="preserve" text-anchor="middle" x="427.83" y="-41.85" font-family="Helvetica,sans-Serif" font-size="14.00">q2</text>
</g>
<!-- q1&#45;&gt;q2 -->
<g id="edge4" class="edge">
<title>q1&#45;&gt;q2</title>
<path fill="none" stroke="black" d="M158.35,-132.2C163.97,-113.64 174.68,-88.65 193.75,-75.28 253.59,-33.34 343.88,-36.03 392.66,-41.42"/>
<polygon fill="black" stroke="black" points="391.98,-44.86 402.33,-42.6 392.83,-37.91 391.98,-44.86"/>
<text xml:space="preserve" text-anchor="middle" x="239.13" y="-79.23" font-family="Helvetica,sans-Serif" font-size="14.00">\</text>
</g>
<!-- q3&#45;&gt;q4 -->
<g id="edge9" class="edge">
<title>q3&#45;&gt;q4</title>
<path fill="none" stroke="black" d="M775.09,-110.43C824.67,-118.82 942.62,-138.78 1011.91,-150.5"/>
<polygon fill="black" stroke="black" points="1011.08,-153.91 1021.52,-152.13 1012.24,-147.01 1011.08,-153.91"/>
<text xml:space="preserve" text-anchor="middle" x="912.96" y="-140.15" font-family="Helvetica,sans-Serif" font-size="14.00">&#39;</text>
</g>
<!-- q3&#45;&gt;E3 -->
<g id="edge10" class="edge">
<title>q3&#45;&gt;E3</title>
<path fill="none" stroke="black" d="M774.84,-102.6C809.36,-96.65 877.46,-84.91 939.04,-74.29"/>
<polygon fill="black" stroke="black" points="939.3,-77.8 948.56,-72.65 938.11,-70.9 939.3,-77.8"/>
<text xml:space="preserve" text-anchor="middle" x="912.96" y="-85.1" font-family="Helvetica,sans-Serif" font-size="14.00">outro</text>
</g>
<!-- q2&#45;&gt;E2 -->
<g id="edge8" class="edge">
<title>q2&#45;&gt;E2</title>
<path fill="none" stroke="black" d="M451.97,-43.99C480.1,-41.03 529.05,-36.29 571.16,-34.28 584.87,-33.62 599.18,-33.14 613.46,-32.79"/>
<polygon fill="black" stroke="black" points="613.48,-36.29 623.4,-32.57 613.32,-29.29 613.48,-36.29"/>
<text xml:space="preserve" text-anchor="middle" x="589.16" y="-38.23" font-family="Helvetica,sans-Serif" font-size="14.00">outro</text>
</g>
<!-- q2&#45;&gt;q3 -->
<g id="edge7" class="edge">
<title>q2&#45;&gt;q3</title>
<path fill="none" stroke="black" d="M451.7,-49.8C485.7,-54.76 551.55,-64.72 607.16,-75.28 644.66,-82.4 687.38,-91.93 716.27,-98.58"/>
<polygon fill="black" stroke="black" points="715.36,-101.97 725.9,-100.82 716.95,-95.15 715.36,-101.97"/>
<text xml:space="preserve" text-anchor="middle" x="589.16" y="-79.23" font-family="Helvetica,sans-Serif" font-size="14.00">&#39; \ n t</text>
</g>
</g>
</svg>
