<?xml version="1.0" encoding="UTF-8" standalone="no"?>
<!DOCTYPE svg PUBLIC "-//W3C//DTD SVG 1.1//EN"
 "http://www.w3.org/Graphics/SVG/1.1/DTD/svg11.dtd">
<!-- Generated by graphviz version 16.1.0 (0)
 -->
<!-- Title: comentario Pages: 1 -->
<svg width="1056pt" height="539pt"
 viewBox="0.00 0.00 1056.00 539.00" xmlns="http://www.w3.org/2000/svg" xmlns:xlink="http://www.w3.org/1999/xlink">
<g id="graph0" class="graph" transform="scale(1 1) rotate(0) translate(4 534.99)">
<title>comentario</title>
<polygon fill="white" stroke="none" points="-4,4 -4,-534.99 1052.21,-534.99 1052.21,4 -4,4"/>
<!-- start -->
<g id="node1" class="node">
<title>start</title>
<ellipse fill="black" stroke="black" cx="1.8" cy="-373.94" rx="1.8" ry="1.8"/>
</g>
<!-- q0 -->
<g id="node6" class="node">
<title>q0</title>
<ellipse fill="none" stroke="black" cx="64.45" cy="-373.94" rx="23.85" ry="23.85"/>
<text xml:space="preserve" text-anchor="middle" x="64.45" y="-369.26" font-family="Helvetica,sans-Serif" font-size="14.00">q0</text>
</g>
<!-- start&#45;&gt;q0 -->
<g id="edge1" class="edge">
<title>start&#45;&gt;q0</title>
<path fill="none" stroke="black" d="M3.85,-373.94C7.13,-373.94 17.62,-373.94 28.91,-373.94"/>
<polygon fill="black" stroke="black" points="28.71,-377.44 38.71,-373.94 28.71,-370.44 28.71,-377.44"/>
</g>
<!-- DIV -->
<g id="node2" class="node">
<title>DIV</title>
<ellipse fill="none" stroke="black" cx="330.7" cy="-496.94" rx="30.05" ry="30.05"/>
<ellipse fill="none" stroke="black" cx="330.7" cy="-496.94" rx="34.05" ry="34.05"/>
<text xml:space="preserve" text-anchor="middle" x="330.7" y="-500.89" font-family="Helvetica,sans-Serif" font-size="14.00">DIV</text>
<text xml:space="preserve" text-anchor="middle" x="330.7" y="-483.64" font-family="Helvetica,sans-Serif" font-size="14.00">(/)</text>
</g>
<!-- FIML -->
<g id="node3" class="node">
<title>FIML</title>
<ellipse fill="none" stroke="black" cx="638.44" cy="-413.94" rx="100.94" ry="100.94"/>
<ellipse fill="none" stroke="black" cx="638.44" cy="-413.94" rx="104.94" ry="104.94"/>
<text xml:space="preserve" text-anchor="middle" x="638.44" y="-426.51" font-family="Helvetica,sans-Serif" font-size="14.00">fim do comentário</text>
<text xml:space="preserve" text-anchor="middle" x="638.44" y="-409.26" font-family="Helvetica,sans-Serif" font-size="14.00">de linha</text>
<text xml:space="preserve" text-anchor="middle" x="638.44" y="-392.01" font-family="Helvetica,sans-Serif" font-size="14.00">(ignorado)</text>
</g>
<!-- FIMB -->
<g id="node4" class="node">
<title>FIMB</title>
<ellipse fill="none" stroke="black" cx="928.04" cy="-104.94" rx="100.94" ry="100.94"/>
<ellipse fill="none" stroke="black" cx="928.04" cy="-104.94" rx="104.94" ry="104.94"/>
<text xml:space="preserve" text-anchor="middle" x="928.04" y="-117.51" font-family="Helvetica,sans-Serif" font-size="14.00">fim do comentário</text>
<text xml:space="preserve" text-anchor="middle" x="928.04" y="-100.26" font-family="Helvetica,sans-Serif" font-size="14.00">de bloco</text>
<text xml:space="preserve" text-anchor="middle" x="928.04" y="-83.01" font-family="Helvetica,sans-Serif" font-size="14.00">(ignorado)</text>
</g>
<!-- E -->
<g id="node5" class="node">
<title>E</title>
<polygon fill="#f8d0d0" stroke="black" points="1048.21,-255 1048.21,-292.88 977.82,-319.67 878.27,-319.67 807.88,-292.88 807.88,-255 878.27,-228.21 977.82,-228.21 1048.21,-255"/>
<text xml:space="preserve" text-anchor="middle" x="928.04" y="-286.51" font-family="Helvetica,sans-Serif" font-size="14.00">ERRO</text>
<text xml:space="preserve" text-anchor="middle" x="928.04" y="-269.26" font-family="Helvetica,sans-Serif" font-size="14.00">comentário de bloco</text>
<text xml:space="preserve" text-anchor="middle" x="928.04" y="-252.01" font-family="Helvetica,sans-Serif" font-size="14.00">não fechado (EOF)</text>
</g>
<!-- s1 -->
<g id="node7" class="node">
<title>s1</title>
<ellipse fill="none" stroke="black" cx="151.6" cy="-373.94" rx="22.8" ry="22.8"/>
<text xml:space="preserve" text-anchor="middle" x="151.6" y="-369.26" font-family="Helvetica,sans-Serif" font-size="14.00">s1</text>
</g>
<!-- q0&#45;&gt;s1 -->
<g id="edge2" class="edge">
<title>q0&#45;&gt;s1</title>
<path fill="none" stroke="black" d="M88.72,-373.94C97.54,-373.94 107.76,-373.94 117.33,-373.94"/>
<polygon fill="black" stroke="black" points="117.02,-377.44 127.02,-373.94 117.02,-370.44 117.02,-377.44"/>
<text xml:space="preserve" text-anchor="middle" x="108.55" y="-377.89" font-family="Helvetica,sans-Serif" font-size="14.00">/</text>
</g>
<!-- s1&#45;&gt;DIV -->
<g id="edge3" class="edge">
<title>s1&#45;&gt;DIV</title>
<path fill="none" stroke="black" d="M170.88,-386.64C199.64,-406.61 256,-445.76 293.26,-471.63"/>
<polygon fill="black" stroke="black" points="290.84,-474.21 301.05,-477.04 294.83,-468.46 290.84,-474.21"/>
<text xml:space="preserve" text-anchor="middle" x="235.52" y="-464.54" font-family="Helvetica,sans-Serif" font-size="14.00">outro / retrai</text>
</g>
<!-- L -->
<g id="node8" class="node">
<title>L</title>
<ellipse fill="none" stroke="black" cx="330.7" cy="-373.94" rx="18" ry="18"/>
<text xml:space="preserve" text-anchor="middle" x="330.7" y="-369.26" font-family="Helvetica,sans-Serif" font-size="14.00">L</text>
</g>
<!-- s1&#45;&gt;L -->
<g id="edge4" class="edge">
<title>s1&#45;&gt;L</title>
<path fill="none" stroke="black" d="M174.67,-373.94C206.69,-373.94 266.03,-373.94 301.28,-373.94"/>
<polygon fill="black" stroke="black" points="301.14,-377.44 311.14,-373.94 301.14,-370.44 301.14,-377.44"/>
<text xml:space="preserve" text-anchor="middle" x="235.52" y="-377.89" font-family="Helvetica,sans-Serif" font-size="14.00">/</text>
</g>
<!-- B -->
<g id="node9" class="node">
<title>B</title>
<ellipse fill="none" stroke="black" cx="330.7" cy="-251.94" rx="18.06" ry="18.06"/>
<text xml:space="preserve" text-anchor="middle" x="330.7" y="-247.26" font-family="Helvetica,sans-Serif" font-size="14.00">B</text>
</g>
<!-- s1&#45;&gt;B -->
<g id="edge7" class="edge">
<title>s1&#45;&gt;B</title>
<path fill="none" stroke="black" d="M170.88,-361.34C203.2,-339.08 270.35,-292.82 306.1,-268.19"/>
<polygon fill="black" stroke="black" points="307.8,-271.27 314.05,-262.72 303.83,-265.51 307.8,-271.27"/>
<text xml:space="preserve" text-anchor="middle" x="235.52" y="-348.41" font-family="Helvetica,sans-Serif" font-size="14.00">*</text>
</g>
<!-- L&#45;&gt;FIML -->
<g id="edge6" class="edge">
<title>L&#45;&gt;FIML</title>
<path fill="none" stroke="black" d="M349.01,-376.2C382.27,-380.56 457.59,-390.41 522.91,-398.96"/>
<polygon fill="black" stroke="black" points="522.27,-402.4 532.64,-400.23 523.18,-395.46 522.27,-402.4"/>
<text xml:space="preserve" text-anchor="middle" x="449.13" y="-418.72" font-family="Helvetica,sans-Serif" font-size="14.00">LF | CR | EOF</text>
<text xml:space="preserve" text-anchor="middle" x="449.13" y="-401.47" font-family="Helvetica,sans-Serif" font-size="14.00">/ retrai</text>
</g>
<!-- L&#45;&gt;L -->
<g id="edge5" class="edge">
<title>L&#45;&gt;L</title>
<path fill="none" stroke="black" d="M316.52,-385.74C308.68,-397.27 313.41,-409.94 330.7,-409.94 342.58,-409.94 348.53,-403.95 348.54,-396.46"/>
<polygon fill="black" stroke="black" points="351.92,-395.5 345.37,-387.17 345.29,-397.77 351.92,-395.5"/>
<text xml:space="preserve" text-anchor="middle" x="330.7" y="-431.14" font-family="Helvetica,sans-Serif" font-size="14.00">qualquer exceto</text>
<text xml:space="preserve" text-anchor="middle" x="330.7" y="-413.89" font-family="Helvetica,sans-Serif" font-size="14.00">LF CR</text>
</g>
<!-- B&#45;&gt;E -->
<g id="edge13" class="edge">
<title>B&#45;&gt;E</title>
<path fill="none" stroke="black" d="M348.65,-255.16C358.55,-256.9 371.31,-258.9 382.75,-259.94 523.71,-272.74 685.98,-275.36 796.41,-275.32"/>
<polygon fill="black" stroke="black" points="796.09,-278.82 806.08,-275.31 796.08,-271.82 796.09,-278.82"/>
<text xml:space="preserve" text-anchor="middle" x="638.44" y="-279.04" font-family="Helvetica,sans-Serif" font-size="14.00">EOF</text>
</g>
<!-- B&#45;&gt;B -->
<g id="edge8" class="edge">
<title>B&#45;&gt;B</title>
<path fill="none" stroke="black" d="M316.52,-263.76C308.68,-275.31 313.41,-288 330.7,-288 342.58,-288 348.53,-282 348.54,-274.5"/>
<polygon fill="black" stroke="black" points="351.91,-273.53 345.37,-265.19 345.29,-275.79 351.91,-273.53"/>
<text xml:space="preserve" text-anchor="middle" x="330.7" y="-291.95" font-family="Helvetica,sans-Serif" font-size="14.00">qualquer exceto *</text>
</g>
<!-- B2 -->
<g id="node10" class="node">
<title>B2</title>
<ellipse fill="none" stroke="black" cx="638.44" cy="-177.94" rx="24.38" ry="24.38"/>
<text xml:space="preserve" text-anchor="middle" x="638.44" y="-173.26" font-family="Helvetica,sans-Serif" font-size="14.00">B2</text>
</g>
<!-- B&#45;&gt;B2 -->
<g id="edge9" class="edge">
<title>B&#45;&gt;B2</title>
<path fill="none" stroke="black" d="M348.57,-247.86C397.23,-236.08 538.47,-201.89 603.7,-186.11"/>
<polygon fill="black" stroke="black" points="604.22,-189.58 613.12,-183.83 602.58,-182.78 604.22,-189.58"/>
<text xml:space="preserve" text-anchor="middle" x="449.13" y="-243.48" font-family="Helvetica,sans-Serif" font-size="14.00">*</text>
</g>
<!-- B2&#45;&gt;FIMB -->
<g id="edge12" class="edge">
<title>B2&#45;&gt;FIMB</title>
<path fill="none" stroke="black" d="M662.49,-172.09C695.54,-163.7 758.63,-147.69 814.91,-133.4"/>
<polygon fill="black" stroke="black" points="815.77,-136.79 824.6,-130.94 814.05,-130.01 815.77,-136.79"/>
<text xml:space="preserve" text-anchor="middle" x="775.63" y="-149.76" font-family="Helvetica,sans-Serif" font-size="14.00">/</text>
</g>
<!-- B2&#45;&gt;E -->
<g id="edge14" class="edge">
<title>B2&#45;&gt;E</title>
<path fill="none" stroke="black" d="M662.01,-185.47C697.04,-197.17 766.62,-220.39 825.7,-240.11"/>
<polygon fill="black" stroke="black" points="824.57,-243.42 835.16,-243.27 826.79,-236.78 824.57,-243.42"/>
<text xml:space="preserve" text-anchor="middle" x="775.63" y="-229.89" font-family="Helvetica,sans-Serif" font-size="14.00">EOF</text>
</g>
<!-- B2&#45;&gt;B -->
<g id="edge11" class="edge">
<title>B2&#45;&gt;B</title>
<path fill="none" stroke="black" d="M614.41,-172.6C567.72,-163.05 459.84,-147.47 382.75,-186.69 366.25,-195.09 353.43,-211.54 344.77,-225.83"/>
<polygon fill="black" stroke="black" points="341.81,-223.95 339.94,-234.38 347.9,-227.39 341.81,-223.95"/>
<text xml:space="preserve" text-anchor="middle" x="449.13" y="-190.64" font-family="Helvetica,sans-Serif" font-size="14.00">qualquer exceto * /</text>
</g>
<!-- B2&#45;&gt;B2 -->
<g id="edge10" class="edge">
<title>B2&#45;&gt;B2</title>
<path fill="none" stroke="black" d="M618,-191.83C606.71,-205.4 613.52,-220.32 638.44,-220.32 657.13,-220.32 665.63,-211.93 663.96,-202.01"/>
<polygon fill="black" stroke="black" points="667.15,-200.57 659.56,-193.18 660.89,-203.69 667.15,-200.57"/>
<text xml:space="preserve" text-anchor="middle" x="638.44" y="-224.27" font-family="Helvetica,sans-Serif" font-size="14.00">*</text>
</g>
</g>
</svg>
