<?xml version="1.0" encoding="UTF-8" standalone="no"?>
<!DOCTYPE svg PUBLIC "-//W3C//DTD SVG 1.1//EN"
 "http://www.w3.org/Graphics/SVG/1.1/DTD/svg11.dtd">
<!-- Generated by graphviz version 16.1.0 (0)
 -->
<!-- Title: delimitador Pages: 1 -->
<svg width="360pt" height="175pt"
 viewBox="0.00 0.00 360.00 175.00" xmlns="http://www.w3.org/2000/svg" xmlns:xlink="http://www.w3.org/1999/xlink">
<g id="graph0" class="graph" transform="scale(1 1) rotate(0) translate(4 171.45)">
<title>delimitador</title>
<polygon fill="white" stroke="none" points="-4,4 -4,-171.45 355.75,-171.45 355.75,4 -4,4"/>
<!-- start -->
<g id="node1" class="node">
<title>start</title>
<ellipse fill="black" stroke="black" cx="1.8" cy="-83.73" rx="1.8" ry="1.8"/>
</g>
<!-- q0 -->
<g id="node3" class="node">
<title>q0</title>
<ellipse fill="none" stroke="black" cx="64.45" cy="-83.73" rx="23.85" ry="23.85"/>
<text xml:space="preserve" text-anchor="middle" x="64.45" y="-79.05" font-family="Helvetica,sans-Serif" font-size="14.00">q0</text>
</g>
<!-- start&#45;&gt;q0 -->
<g id="edge1" class="edge">
<title>start&#45;&gt;q0</title>
<path fill="none" stroke="black" d="M3.85,-83.73C7.13,-83.73 17.62,-83.73 28.91,-83.73"/>
<polygon fill="black" stroke="black" points="28.71,-87.23 38.71,-83.73 28.71,-80.23 28.71,-87.23"/>
</g>
<!-- q1 -->
<g id="node2" class="node">
<title>q1</title>
<ellipse fill="none" stroke="black" cx="268.03" cy="-83.73" rx="79.73" ry="79.73"/>
<ellipse fill="none" stroke="black" cx="268.03" cy="-83.73" rx="83.73" ry="83.73"/>
<text xml:space="preserve" text-anchor="middle" x="268.03" y="-87.68" font-family="Helvetica,sans-Serif" font-size="14.00">q1</text>
<text xml:space="preserve" text-anchor="middle" x="268.03" y="-70.43" font-family="Helvetica,sans-Serif" font-size="14.00">DELIMITADOR</text>
</g>
<!-- q0&#45;&gt;q1 -->
<g id="edge2" class="edge">
<title>q0&#45;&gt;q1</title>
<path fill="none" stroke="black" d="M88.57,-83.73C109.39,-83.73 141.42,-83.73 172.63,-83.73"/>
<polygon fill="black" stroke="black" points="172.55,-87.23 182.55,-83.73 172.55,-80.23 172.55,-87.23"/>
<text xml:space="preserve" text-anchor="middle" x="136.3" y="-87.68" font-family="Helvetica,sans-Serif" font-size="14.00">( ) { } , ;</text>
</g>
</g>
</svg>
