<?xml version="1.0" encoding="UTF-8" standalone="no"?>
<!DOCTYPE svg PUBLIC "-//W3C//DTD SVG 1.1//EN"
 "http://www.w3.org/Graphics/SVG/1.1/DTD/svg11.dtd">
<!-- Generated by graphviz version 16.1.0 (0)
 -->
<!-- Title: operador Pages: 1 -->
<svg width="470pt" height="925pt"
 viewBox="0.00 0.00 470.00 925.00" xmlns="http://www.w3.org/2000/svg" xmlns:xlink="http://www.w3.org/1999/xlink">
<g id="graph0" class="graph" transform="scale(1 1) rotate(0) translate(4 921.17)">
<title>operador</title>
<polygon fill="white" stroke="none" points="-4,4 -4,-921.17 466.09,-921.17 466.09,4 -4,4"/>
<!-- start -->
<g id="node1" class="node">
<title>start</title>
<ellipse fill="black" stroke="black" cx="1.8" cy="-622.53" rx="1.8" ry="1.8"/>
</g>
<!-- q0 -->
<g id="node17" class="node">
<title>q0</title>
<ellipse fill="none" stroke="black" cx="64.45" cy="-622.53" rx="23.85" ry="23.85"/>
<text xml:space="preserve" text-anchor="middle" x="64.45" y="-617.85" font-family="Helvetica,sans-Serif" font-size="14.00">q0</text>
</g>
<!-- start&#45;&gt;q0 -->
<g id="edge1" class="edge">
<title>start&#45;&gt;q0</title>
<path fill="none" stroke="black" d="M3.85,-622.53C7.13,-622.53 17.62,-622.53 28.91,-622.53"/>
<polygon fill="black" stroke="black" points="28.71,-626.03 38.71,-622.53 28.71,-619.03 28.71,-626.03"/>
</g>
<!-- ASSIGN -->
<g id="node2" class="node">
<title>ASSIGN</title>
<ellipse fill="none" stroke="black" cx="400.48" cy="-845.53" rx="19.64" ry="19.64"/>
<ellipse fill="none" stroke="black" cx="400.48" cy="-845.53" rx="23.64" ry="23.64"/>
<text xml:space="preserve" text-anchor="middle" x="400.48" y="-840.85" font-family="Helvetica,sans-Serif" font-size="14.00">=</text>
</g>
<!-- EQEQ -->
<g id="node3" class="node">
<title>EQEQ</title>
<ellipse fill="none" stroke="black" cx="400.48" cy="-771.53" rx="28.06" ry="28.06"/>
<ellipse fill="none" stroke="black" cx="400.48" cy="-771.53" rx="32.06" ry="32.06"/>
<text xml:space="preserve" text-anchor="middle" x="400.48" y="-766.85" font-family="Helvetica,sans-Serif" font-size="14.00">==</text>
</g>
<!-- LT -->
<g id="node4" class="node">
<title>LT</title>
<ellipse fill="none" stroke="black" cx="400.48" cy="-697.53" rx="19.64" ry="19.64"/>
<ellipse fill="none" stroke="black" cx="400.48" cy="-697.53" rx="23.64" ry="23.64"/>
<text xml:space="preserve" text-anchor="middle" x="400.48" y="-692.85" font-family="Helvetica,sans-Serif" font-size="14.00">&lt;</text>
</g>
<!-- LE -->
<g id="node5" class="node">
<title>LE</title>
<ellipse fill="none" stroke="black" cx="400.48" cy="-623.53" rx="28.06" ry="28.06"/>
<ellipse fill="none" stroke="black" cx="400.48" cy="-623.53" rx="32.06" ry="32.06"/>
<text xml:space="preserve" text-anchor="middle" x="400.48" y="-618.85" font-family="Helvetica,sans-Serif" font-size="14.00">&lt;=</text>
</g>
<!-- GT -->
<g id="node6" class="node">
<title>GT</title>
<ellipse fill="none" stroke="black" cx="400.48" cy="-549.53" rx="19.64" ry="19.64"/>
<ellipse fill="none" stroke="black" cx="400.48" cy="-549.53" rx="23.64" ry="23.64"/>
<text xml:space="preserve" text-anchor="middle" x="400.48" y="-544.85" font-family="Helvetica,sans-Serif" font-size="14.00">&gt;</text>
</g>
<!-- GE -->
<g id="node7" class="node">
<title>GE</title>
<ellipse fill="none" stroke="black" cx="400.48" cy="-475.53" rx="28.06" ry="28.06"/>
<ellipse fill="none" stroke="black" cx="400.48" cy="-475.53" rx="32.06" ry="32.06"/>
<text xml:space="preserve" text-anchor="middle" x="400.48" y="-470.85" font-family="Helvetica,sans-Serif" font-size="14.00">&gt;=</text>
</g>
<!-- NOT -->
<g id="node8" class="node">
<title>NOT</title>
<ellipse fill="none" stroke="black" cx="400.48" cy="-403.53" rx="18" ry="18"/>
<ellipse fill="none" stroke="black" cx="400.48" cy="-403.53" rx="22" ry="22"/>
<text xml:space="preserve" text-anchor="middle" x="400.48" y="-398.85" font-family="Helvetica,sans-Serif" font-size="14.00">!</text>
</g>
<!-- NE -->
<g id="node9" class="node">
<title>NE</title>
<ellipse fill="none" stroke="black" cx="400.48" cy="-336.53" rx="23.32" ry="23.32"/>
<ellipse fill="none" stroke="black" cx="400.48" cy="-336.53" rx="27.32" ry="27.32"/>
<text xml:space="preserve" text-anchor="middle" x="400.48" y="-331.85" font-family="Helvetica,sans-Serif" font-size="14.00">!=</text>
</g>
<!-- AND -->
<g id="node10" class="node">
<title>AND</title>
<ellipse fill="none" stroke="black" cx="400.48" cy="-260.53" rx="27.01" ry="27.01"/>
<ellipse fill="none" stroke="black" cx="400.48" cy="-260.53" rx="31.01" ry="31.01"/>
<text xml:space="preserve" text-anchor="middle" x="400.48" y="-255.85" font-family="Helvetica,sans-Serif" font-size="14.00">&amp;&amp;</text>
</g>
<!-- OR -->
<g id="node11" class="node">
<title>OR</title>
<ellipse fill="none" stroke="black" cx="400.48" cy="-105.53" rx="18" ry="18"/>
<ellipse fill="none" stroke="black" cx="400.48" cy="-105.53" rx="22" ry="22"/>
<text xml:space="preserve" text-anchor="middle" x="400.48" y="-100.85" font-family="Helvetica,sans-Serif" font-size="14.00">||</text>
</g>
<!-- PLUS -->
<g id="node12" class="node">
<title>PLUS</title>
<ellipse fill="none" stroke="black" cx="176.46" cy="-893.53" rx="19.64" ry="19.64"/>
<ellipse fill="none" stroke="black" cx="176.46" cy="-893.53" rx="23.64" ry="23.64"/>
<text xml:space="preserve" text-anchor="middle" x="176.46" y="-888.85" font-family="Helvetica,sans-Serif" font-size="14.00">+</text>
</g>
<!-- MINUS -->
<g id="node13" class="node">
<title>MINUS</title>
<ellipse fill="none" stroke="black" cx="176.46" cy="-829.53" rx="18" ry="18"/>
<ellipse fill="none" stroke="black" cx="176.46" cy="-829.53" rx="22" ry="22"/>
<text xml:space="preserve" text-anchor="middle" x="176.46" y="-824.85" font-family="Helvetica,sans-Serif" font-size="14.00">&#45;</text>
</g>
<!-- STAR -->
<g id="node14" class="node">
<title>STAR</title>
<ellipse fill="none" stroke="black" cx="176.46" cy="-767.53" rx="18" ry="18"/>
<ellipse fill="none" stroke="black" cx="176.46" cy="-767.53" rx="22" ry="22"/>
<text xml:space="preserve" text-anchor="middle" x="176.46" y="-762.85" font-family="Helvetica,sans-Serif" font-size="14.00">*</text>
</g>
<!-- E_AMP -->
<g id="node15" class="node">
<title>E_AMP</title>
<polygon fill="#f8d0d0" stroke="black" points="462.09,-165.05 462.09,-192 426,-211.06 374.96,-211.06 338.87,-192 338.87,-165.05 374.96,-146 426,-146 462.09,-165.05"/>
<text xml:space="preserve" text-anchor="middle" x="400.48" y="-182.48" font-family="Helvetica,sans-Serif" font-size="14.00">ERRO</text>
<text xml:space="preserve" text-anchor="middle" x="400.48" y="-165.23" font-family="Helvetica,sans-Serif" font-size="14.00">&amp; isolado</text>
</g>
<!-- E_BAR -->
<g id="node16" class="node">
<title>E_BAR</title>
<polygon fill="#f8d0d0" stroke="black" points="456.93,-19.05 456.93,-46 423.86,-65.06 377.1,-65.06 344.04,-46 344.04,-19.05 377.1,0 423.86,0 456.93,-19.05"/>
<text xml:space="preserve" text-anchor="middle" x="400.48" y="-36.48" font-family="Helvetica,sans-Serif" font-size="14.00">ERRO</text>
<text xml:space="preserve" text-anchor="middle" x="400.48" y="-19.23" font-family="Helvetica,sans-Serif" font-size="14.00">| isolado</text>
</g>
<!-- q0&#45;&gt;PLUS -->
<g id="edge20" class="edge">
<title>q0&#45;&gt;PLUS</title>
<path fill="none" stroke="black" d="M67.24,-646.51C71.73,-692.29 86.93,-793.55 136.3,-860.53 139.62,-865.03 143.67,-869.32 147.9,-873.22"/>
<polygon fill="black" stroke="black" points="145.6,-875.85 155.49,-879.65 150.13,-870.51 145.6,-875.85"/>
<text xml:space="preserve" text-anchor="middle" x="112.3" y="-830.25" font-family="Helvetica,sans-Serif" font-size="14.00">+</text>
</g>
<!-- q0&#45;&gt;MINUS -->
<g id="edge21" class="edge">
<title>q0&#45;&gt;MINUS</title>
<path fill="none" stroke="black" d="M70.39,-646.07C78.87,-682.02 98.98,-751.4 136.3,-798.53 139.91,-803.08 144.31,-807.38 148.85,-811.24"/>
<polygon fill="black" stroke="black" points="146.34,-813.72 156.36,-817.14 150.66,-808.21 146.34,-813.72"/>
<text xml:space="preserve" text-anchor="middle" x="112.3" y="-772.56" font-family="Helvetica,sans-Serif" font-size="14.00">&#45;</text>
</g>
<!-- q0&#45;&gt;STAR -->
<g id="edge22" class="edge">
<title>q0&#45;&gt;STAR</title>
<path fill="none" stroke="black" d="M75.79,-643.76C88.13,-667.83 110.39,-707.49 136.3,-736.53 140,-740.68 144.31,-744.69 148.68,-748.38"/>
<polygon fill="black" stroke="black" points="146.38,-751.03 156.39,-754.49 150.73,-745.54 146.38,-751.03"/>
<text xml:space="preserve" text-anchor="middle" x="112.3" y="-717.58" font-family="Helvetica,sans-Serif" font-size="14.00">*</text>
</g>
<!-- qEq -->
<g id="node18" class="node">
<title>qEq</title>
<ellipse fill="none" stroke="black" cx="176.46" cy="-697.53" rx="30.16" ry="30.16"/>
<text xml:space="preserve" text-anchor="middle" x="176.46" y="-692.85" font-family="Helvetica,sans-Serif" font-size="14.00">qEq</text>
</g>
<!-- q0&#45;&gt;qEq -->
<g id="edge2" class="edge">
<title>q0&#45;&gt;qEq</title>
<path fill="none" stroke="black" d="M84.86,-635.76C100.52,-646.44 122.91,-661.7 141.52,-674.39"/>
<polygon fill="black" stroke="black" points="139.36,-677.15 149.59,-679.89 143.3,-671.37 139.36,-677.15"/>
<text xml:space="preserve" text-anchor="middle" x="112.3" y="-661.73" font-family="Helvetica,sans-Serif" font-size="14.00">=</text>
</g>
<!-- qLt -->
<g id="node19" class="node">
<title>qLt</title>
<ellipse fill="none" stroke="black" cx="176.46" cy="-622.53" rx="26.48" ry="26.48"/>
<text xml:space="preserve" text-anchor="middle" x="176.46" y="-617.85" font-family="Helvetica,sans-Serif" font-size="14.00">qLt</text>
</g>
<!-- q0&#45;&gt;qLt -->
<g id="edge5" class="edge">
<title>q0&#45;&gt;qLt</title>
<path fill="none" stroke="black" d="M88.78,-622.53C103.19,-622.53 122.01,-622.53 138.43,-622.53"/>
<polygon fill="black" stroke="black" points="138.35,-626.03 148.35,-622.53 138.35,-619.03 138.35,-626.03"/>
<text xml:space="preserve" text-anchor="middle" x="112.3" y="-626.48" font-family="Helvetica,sans-Serif" font-size="14.00">&lt;</text>
</g>
<!-- qGt -->
<g id="node20" class="node">
<title>qGt</title>
<ellipse fill="none" stroke="black" cx="176.46" cy="-549.53" rx="28.59" ry="28.59"/>
<text xml:space="preserve" text-anchor="middle" x="176.46" y="-544.85" font-family="Helvetica,sans-Serif" font-size="14.00">qGt</text>
</g>
<!-- q0&#45;&gt;qGt -->
<g id="edge8" class="edge">
<title>q0&#45;&gt;qGt</title>
<path fill="none" stroke="black" d="M84.86,-609.65C100.83,-599.05 123.81,-583.8 142.63,-571.31"/>
<polygon fill="black" stroke="black" points="144.38,-574.35 150.78,-565.91 140.51,-568.52 144.38,-574.35"/>
<text xml:space="preserve" text-anchor="middle" x="112.3" y="-598.66" font-family="Helvetica,sans-Serif" font-size="14.00">&gt;</text>
</g>
<!-- qNot -->
<g id="node21" class="node">
<title>qNot</title>
<ellipse fill="none" stroke="black" cx="176.46" cy="-403.53" rx="34.37" ry="34.37"/>
<text xml:space="preserve" text-anchor="middle" x="176.46" y="-398.85" font-family="Helvetica,sans-Serif" font-size="14.00">qNot</text>
</g>
<!-- q0&#45;&gt;qNot -->
<g id="edge11" class="edge">
<title>q0&#45;&gt;qNot</title>
<path fill="none" stroke="black" d="M76,-601.53C94.15,-565.4 131.58,-490.88 155,-444.27"/>
<polygon fill="black" stroke="black" points="158.01,-446.06 159.37,-435.55 151.76,-442.92 158.01,-446.06"/>
<text xml:space="preserve" text-anchor="middle" x="112.3" y="-543.03" font-family="Helvetica,sans-Serif" font-size="14.00">!</text>
</g>
<!-- qAmp -->
<g id="node22" class="node">
<title>qAmp</title>
<ellipse fill="none" stroke="black" cx="176.46" cy="-260.53" rx="40.16" ry="40.16"/>
<text xml:space="preserve" text-anchor="middle" x="176.46" y="-255.85" font-family="Helvetica,sans-Serif" font-size="14.00">qAmp</text>
</g>
<!-- q0&#45;&gt;qAmp -->
<g id="edge14" class="edge">
<title>q0&#45;&gt;qAmp</title>
<path fill="none" stroke="black" d="M70.86,-599.14C81.74,-553.04 107.66,-447.34 136.3,-360.53 142.05,-343.1 149.17,-324.29 155.75,-307.73"/>
<polygon fill="black" stroke="black" points="158.93,-309.21 159.42,-298.62 152.44,-306.6 158.93,-309.21"/>
<text xml:space="preserve" text-anchor="middle" x="112.3" y="-457.33" font-family="Helvetica,sans-Serif" font-size="14.00">&amp;</text>
</g>
<!-- qBar -->
<g id="node23" class="node">
<title>qBar</title>
<ellipse fill="none" stroke="black" cx="176.46" cy="-105.53" rx="34.37" ry="34.37"/>
<text xml:space="preserve" text-anchor="middle" x="176.46" y="-100.85" font-family="Helvetica,sans-Serif" font-size="14.00">qBar</text>
</g>
<!-- q0&#45;&gt;qBar -->
<g id="edge17" class="edge">
<title>q0&#45;&gt;qBar</title>
<path fill="none" stroke="black" d="M68.02,-598.57C75.21,-534.8 97.53,-355.93 136.3,-211.53 142.07,-190.05 150.41,-166.8 157.91,-147.57"/>
<polygon fill="black" stroke="black" points="161.09,-149.03 161.53,-138.45 154.59,-146.45 161.09,-149.03"/>
<text xml:space="preserve" text-anchor="middle" x="112.3" y="-338.29" font-family="Helvetica,sans-Serif" font-size="14.00">|</text>
</g>
<!-- qEq&#45;&gt;ASSIGN -->
<g id="edge4" class="edge">
<title>qEq&#45;&gt;ASSIGN</title>
<path fill="none" stroke="black" d="M199.26,-717.23C205.23,-723.14 211.46,-729.84 216.62,-736.53 226.35,-749.15 222.89,-756.75 234.62,-767.53 273.11,-802.91 330.54,-825.1 366.46,-836.4"/>
<polygon fill="black" stroke="black" points="365.28,-839.7 375.87,-839.24 367.31,-833 365.28,-839.7"/>
<text xml:space="preserve" text-anchor="middle" x="277.75" y="-822.63" font-family="Helvetica,sans-Serif" font-size="14.00">outro / retrai</text>
</g>
<!-- qEq&#45;&gt;EQEQ -->
<g id="edge3" class="edge">
<title>qEq&#45;&gt;EQEQ</title>
<path fill="none" stroke="black" d="M205,-707.9C214.37,-711.37 224.92,-715.19 234.62,-718.53 276.76,-733.04 325.38,-748.51 358.84,-758.97"/>
<polygon fill="black" stroke="black" points="357.54,-762.24 368.13,-761.87 359.63,-755.55 357.54,-762.24"/>
<text xml:space="preserve" text-anchor="middle" x="277.75" y="-750.6" font-family="Helvetica,sans-Serif" font-size="14.00">=</text>
</g>
<!-- qLt&#45;&gt;LT -->
<g id="edge7" class="edge">
<title>qLt&#45;&gt;LT</title>
<path fill="none" stroke="black" d="M201.55,-632.14C211.71,-636.11 223.69,-640.67 234.62,-644.53 280.02,-660.55 333.12,-677.26 366.53,-687.53"/>
<polygon fill="black" stroke="black" points="365.45,-690.86 376.04,-690.44 367.5,-684.17 365.45,-690.86"/>
<text xml:space="preserve" text-anchor="middle" x="277.75" y="-676.84" font-family="Helvetica,sans-Serif" font-size="14.00">outro / retrai</text>
</g>
<!-- qLt&#45;&gt;LE -->
<g id="edge6" class="edge">
<title>qLt&#45;&gt;LE</title>
<path fill="none" stroke="black" d="M203.36,-622.64C241.04,-622.81 311.39,-623.13 356.79,-623.34"/>
<polygon fill="black" stroke="black" points="356.51,-626.83 366.53,-623.38 356.54,-619.83 356.51,-626.83"/>
<text xml:space="preserve" text-anchor="middle" x="277.75" y="-627.1" font-family="Helvetica,sans-Serif" font-size="14.00">=</text>
</g>
<!-- qGt&#45;&gt;GT -->
<g id="edge10" class="edge">
<title>qGt&#45;&gt;GT</title>
<path fill="none" stroke="black" d="M205.13,-549.53C245.7,-549.53 321.26,-549.53 365.27,-549.53"/>
<polygon fill="black" stroke="black" points="365.01,-553.03 375.01,-549.53 365.01,-546.03 365.01,-553.03"/>
<text xml:space="preserve" text-anchor="middle" x="277.75" y="-553.48" font-family="Helvetica,sans-Serif" font-size="14.00">outro / retrai</text>
</g>
<!-- qGt&#45;&gt;GE -->
<g id="edge9" class="edge">
<title>qGt&#45;&gt;GE</title>
<path fill="none" stroke="black" d="M203.55,-539.54C213.27,-535.9 224.41,-531.81 234.62,-528.28 276.6,-513.77 325.05,-498.43 358.52,-488.06"/>
<polygon fill="black" stroke="black" points="359.29,-491.48 367.81,-485.18 357.23,-484.79 359.29,-491.48"/>
<text xml:space="preserve" text-anchor="middle" x="277.75" y="-532.23" font-family="Helvetica,sans-Serif" font-size="14.00">=</text>
</g>
<!-- qNot&#45;&gt;NOT -->
<g id="edge13" class="edge">
<title>qNot&#45;&gt;NOT</title>
<path fill="none" stroke="black" d="M211.18,-403.53C253.36,-403.53 325.08,-403.53 366.78,-403.53"/>
<polygon fill="black" stroke="black" points="366.68,-407.03 376.68,-403.53 366.68,-400.03 366.68,-407.03"/>
<text xml:space="preserve" text-anchor="middle" x="277.75" y="-407.48" font-family="Helvetica,sans-Serif" font-size="14.00">outro / retrai</text>
</g>
<!-- qNot&#45;&gt;NE -->
<g id="edge12" class="edge">
<title>qNot&#45;&gt;NE</title>
<path fill="none" stroke="black" d="M209.04,-391.24C217.31,-388.17 226.26,-384.99 234.62,-382.28 278.1,-368.19 328.86,-354.51 362.45,-345.84"/>
<polygon fill="black" stroke="black" points="363.3,-349.24 372.11,-343.36 361.56,-342.46 363.3,-349.24"/>
<text xml:space="preserve" text-anchor="middle" x="277.75" y="-386.23" font-family="Helvetica,sans-Serif" font-size="14.00">=</text>
</g>
<!-- qAmp&#45;&gt;AND -->
<g id="edge15" class="edge">
<title>qAmp&#45;&gt;AND</title>
<path fill="none" stroke="black" d="M216.9,-260.53C256.59,-260.53 317.57,-260.53 357.98,-260.53"/>
<polygon fill="black" stroke="black" points="357.8,-264.03 367.8,-260.53 357.8,-257.03 357.8,-264.03"/>
<text xml:space="preserve" text-anchor="middle" x="277.75" y="-264.48" font-family="Helvetica,sans-Serif" font-size="14.00">&amp;</text>
</g>
<!-- qAmp&#45;&gt;E_AMP -->
<g id="edge16" class="edge">
<title>qAmp&#45;&gt;E_AMP</title>
<path fill="none" stroke="black" d="M214.66,-246.68C221.3,-244.21 228.17,-241.67 234.62,-239.28 268.65,-226.68 306.66,-212.67 337.6,-201.28"/>
<polygon fill="black" stroke="black" points="338.63,-204.63 346.81,-197.89 336.21,-198.06 338.63,-204.63"/>
<text xml:space="preserve" text-anchor="middle" x="277.75" y="-243.23" font-family="Helvetica,sans-Serif" font-size="14.00">outro</text>
</g>
<!-- qBar&#45;&gt;OR -->
<g id="edge18" class="edge">
<title>qBar&#45;&gt;OR</title>
<path fill="none" stroke="black" d="M211.18,-105.53C253.36,-105.53 325.08,-105.53 366.78,-105.53"/>
<polygon fill="black" stroke="black" points="366.68,-109.03 376.68,-105.53 366.68,-102.03 366.68,-109.03"/>
<text xml:space="preserve" text-anchor="middle" x="277.75" y="-109.48" font-family="Helvetica,sans-Serif" font-size="14.00">|</text>
</g>
<!-- qBar&#45;&gt;E_BAR -->
<g id="edge19" class="edge">
<title>qBar&#45;&gt;E_BAR</title>
<path fill="none" stroke="black" d="M209.1,-93.43C217.38,-90.36 226.31,-87.13 234.62,-84.28 268.13,-72.8 305.8,-60.9 336.67,-51.41"/>
<polygon fill="black" stroke="black" points="337.3,-54.88 345.83,-48.6 335.25,-48.18 337.3,-54.88"/>
<text xml:space="preserve" text-anchor="middle" x="277.75" y="-88.23" font-family="Helvetica,sans-Serif" font-size="14.00">outro</text>
</g>
</g>
</svg>
